<?xml version="1.0" encoding="utf-8"?>
<!-- Generator: Adobe Illustrator 14.0.0, SVG Export Plug-In . SVG Version: 6.00 Build 43363)  -->
<!DOCTYPE svg PUBLIC "-//W3C//DTD SVG 1.1//EN" "http://www.w3.org/Graphics/SVG/1.1/DTD/svg11.dtd">
<svg version="1.1" id="Ebene_1" xmlns="http://www.w3.org/2000/svg" xmlns:xlink="http://www.w3.org/1999/xlink" x="0px" y="0px"
	 width="140px" height="96px" viewBox="294 242.25 140 96" enable-background="new 294 242.25 140 96" xml:space="preserve">
<g>
	<rect x="-110.342" y="-211.704" fill="#CCCC01" width="103.042" height="74.145"/>
	<polygon fill="#48C0EB" points="82.858,-85.943 126.159,-160.943 169.46,-85.943 	"/>
	<circle fill="#E42322" cx="66.083" cy="-184.327" r="23.574"/>
</g>
<g>
	<circle fill="#D2EBF2" cx="-72.51" cy="-100.107" r="9.315"/>
	<circle fill="#D2EBF2" cx="-49.886" cy="-100.298" r="9.315"/>
	<circle fill="#D2EBF2" cx="-27.262" cy="-100.299" r="9.315"/>
</g>
<g id="schema">
	<g>
		<path fill="none" stroke="#D2EBF2" stroke-width="28.3465" stroke-linecap="round" d="M312.796,264.101h38.169
			c4.678,0,11.21,2.706,14.519,6.013l9.213,9.216c3.308,3.307,9.841,6.013,14.518,6.013h11.7"/>
	</g>
	<g>
		<path fill="none" stroke="#50BBC0" stroke-width="14.1732" stroke-linecap="round" d="M312.796,322.898h28.283
			c4.677,0,11.21-2.706,14.518-6.013l4.497-4.498c3.308-3.308,9.841-6.014,14.519-6.014H405.7"/>
	</g>
	<g>
		<circle fill="#C6C7C8" cx="312.796" cy="322.899" r="5.669"/>
	</g>
	<g>
		<circle fill="#C6C7C8" cx="312.796" cy="264.102" r="12.756"/>
	</g>
	<g id="one">
		<path fill="#C6C7C8" d="M405.699,312.893c-11.447,0-20.76-9.313-20.76-20.761c0-11.448,9.312-20.76,20.76-20.76
			s20.76,9.312,20.76,20.76C426.459,303.579,417.146,312.893,405.699,312.893L405.699,312.893z"/>
		<path fill="#C6C7C8" d="M405.699,271.872c11.171,0,20.26,9.089,20.26,20.26c0,11.172-9.089,20.261-20.26,20.261
			c-11.172,0-20.26-9.089-20.26-20.261C385.439,280.961,394.527,271.872,405.699,271.872 M405.699,270.872
			c-11.741,0-21.26,9.519-21.26,21.26c0,11.74,9.519,21.261,21.26,21.261c11.74,0,21.26-9.521,21.26-21.261
			C426.959,280.391,417.439,270.872,405.699,270.872L405.699,270.872z"/>
	</g>
</g>
</svg>
