<?xml version="1.0" encoding="utf-8"?>
<!-- Generator: Adobe Illustrator 14.0.0, SVG Export Plug-In . SVG Version: 6.00 Build 43363)  -->
<!DOCTYPE svg PUBLIC "-//W3C//DTD SVG 1.1//EN" "http://www.w3.org/Graphics/SVG/1.1/DTD/svg11.dtd">
<svg version="1.1" id="Ebene_1" xmlns="http://www.w3.org/2000/svg" xmlns:xlink="http://www.w3.org/1999/xlink" x="0px" y="0px"
	 width="2200px" height="2000px" viewBox="0 0 2200 2000" enable-background="new 0 0 2200 2000" xml:space="preserve">
<g id="HexMap">
	<polygon fill="none" stroke="#707173" points="803.434,1858.397 655.077,1944.052 506.724,1858.397 506.724,1687.086 
		655.077,1601.432 803.434,1687.086 	"/>
	<polygon fill="none" stroke="#707173" points="1100.151,1858.397 951.792,1944.052 803.438,1858.397 803.438,1687.086 
		951.792,1601.432 1100.151,1687.086 	"/>
	<polygon fill="none" stroke="#707173" points="1396.861,1858.397 1248.507,1944.052 1100.156,1858.397 1100.156,1687.086 
		1248.507,1601.432 1396.861,1687.086 	"/>
	<polygon fill="none" stroke="#707173" points="1693.579,1858.397 1545.221,1944.052 1396.867,1858.397 1396.867,1687.086 
		1545.221,1601.432 1693.579,1687.086 	"/>
	<polygon fill="none" stroke="#707173" points="655.077,1601.432 506.719,1687.086 358.361,1601.432 358.361,1430.12 
		506.719,1344.468 655.077,1430.12 	"/>
	<polygon fill="none" stroke="#707173" points="951.792,1601.432 803.434,1687.086 655.078,1601.432 655.078,1430.12 
		803.434,1344.468 951.792,1430.12 	"/>
	<polygon fill="none" stroke="#707173" points="1248.507,1601.432 1100.151,1687.086 951.796,1601.432 951.796,1430.12 
		1100.151,1344.468 1248.507,1430.12 	"/>
	<polygon fill="none" stroke="#707173" points="1545.221,1601.432 1396.861,1687.086 1248.509,1601.432 1248.509,1430.12 
		1396.861,1344.468 1545.221,1430.12 	"/>
	<polygon fill="none" stroke="#707173" points="1841.938,1601.432 1693.579,1687.086 1545.225,1601.432 1545.225,1430.12 
		1693.579,1344.468 1841.938,1430.12 	"/>
	<polygon fill="none" stroke="#707173" points="506.719,1344.468 358.361,1430.12 210.006,1344.468 210.006,1173.158 
		358.361,1087.504 506.719,1173.158 	"/>
	<polygon fill="none" stroke="#707173" points="803.434,1344.468 655.077,1430.12 506.724,1344.468 506.724,1173.158 
		655.077,1087.504 803.434,1173.158 	"/>
	<polygon fill="none" stroke="#707173" points="1100.151,1344.468 951.792,1430.12 803.438,1344.468 803.438,1173.158 
		951.792,1087.504 1100.151,1173.158 	"/>
	<polygon fill="none" stroke="#707173" points="1396.861,1344.468 1248.507,1430.12 1100.156,1344.468 1100.156,1173.158 
		1248.507,1087.504 1396.861,1173.158 	"/>
	<polygon fill="none" stroke="#707173" points="1693.579,1344.468 1545.221,1430.12 1396.867,1344.468 1396.867,1173.158 
		1545.221,1087.504 1693.579,1173.158 	"/>
	<polygon fill="none" stroke="#707173" points="1990.293,1344.468 1841.938,1430.12 1693.582,1344.468 1693.582,1173.158 
		1841.938,1087.504 1990.293,1173.158 	"/>
	<polygon fill="none" stroke="#707173" points="358.361,1087.504 210.006,1173.158 61.646,1087.504 61.646,916.195 210.006,830.538 
		358.361,916.195 	"/>
	<polygon fill="none" stroke="#707173" points="655.077,1087.504 506.719,1173.158 358.361,1087.504 358.361,916.195 
		506.719,830.538 655.077,916.195 	"/>
	<polygon fill="none" stroke="#707173" points="951.792,1087.504 803.434,1173.158 655.078,1087.504 655.078,916.195 
		803.434,830.538 951.792,916.195 	"/>
	<polygon fill="none" stroke="#707173" points="1248.507,1087.504 1100.151,1173.158 951.796,1087.504 951.796,916.195 
		1100.151,830.538 1248.507,916.195 	"/>
	<polygon fill="none" stroke="#707173" points="1545.221,1087.504 1396.861,1173.158 1248.509,1087.504 1248.509,916.195 
		1396.861,830.538 1545.221,916.195 	"/>
	<polygon fill="none" stroke="#707173" points="1841.938,1087.504 1693.579,1173.158 1545.225,1087.504 1545.225,916.195 
		1693.579,830.538 1841.938,916.195 	"/>
	<polygon fill="none" stroke="#707173" points="2138.646,1087.504 1990.293,1173.158 1841.938,1087.504 1841.938,916.195 
		1990.293,830.538 2138.646,916.195 	"/>
	<polygon fill="none" stroke="#707173" points="506.719,830.538 358.361,916.195 210.006,830.538 210.006,659.231 358.361,573.574 
		506.719,659.231 	"/>
	<polygon fill="none" stroke="#707173" points="803.434,830.538 655.077,916.195 506.724,830.538 506.724,659.231 655.077,573.574 
		803.434,659.231 	"/>
	<polygon fill="none" stroke="#707173" points="1100.151,830.538 951.792,916.195 803.438,830.538 803.438,659.231 951.792,573.574 
		1100.151,659.231 	"/>
	<polygon fill="none" stroke="#707173" points="1396.861,830.538 1248.507,916.195 1100.156,830.538 1100.156,659.231 
		1248.507,573.574 1396.861,659.231 	"/>
	<polygon fill="none" stroke="#707173" points="1693.579,830.538 1545.221,916.195 1396.867,830.538 1396.867,659.231 
		1545.221,573.574 1693.579,659.231 	"/>
	<polygon fill="none" stroke="#707173" points="1990.293,830.538 1841.938,916.195 1693.582,830.538 1693.582,659.231 
		1841.938,573.574 1990.293,659.231 	"/>
	<polygon fill="none" stroke="#707173" points="655.077,573.574 506.719,659.231 358.361,573.574 358.361,402.265 506.719,316.609 
		655.077,402.265 	"/>
	<polygon fill="none" stroke="#707173" points="951.792,573.574 803.434,659.231 655.078,573.574 655.078,402.265 803.434,316.609 
		951.792,402.265 	"/>
	<polygon fill="none" stroke="#707173" points="1248.507,573.574 1100.151,659.231 951.796,573.574 951.796,402.265 
		1100.151,316.609 1248.507,402.265 	"/>
	<polygon fill="none" stroke="#707173" points="1545.221,573.574 1396.861,659.231 1248.509,573.574 1248.509,402.265 
		1396.861,316.609 1545.221,402.265 	"/>
	<polygon fill="none" stroke="#707173" points="1841.938,573.574 1693.579,659.231 1545.225,573.574 1545.225,402.265 
		1693.579,316.609 1841.938,402.265 	"/>
	<polygon fill="none" stroke="#707173" points="803.434,316.609 655.077,402.265 506.724,316.609 506.724,145.3 655.077,59.647 
		803.434,145.3 	"/>
	<polygon fill="none" stroke="#707173" points="1100.151,316.609 951.792,402.265 803.438,316.609 803.438,145.3 951.792,59.647 
		1100.151,145.3 	"/>
	<polygon fill="none" stroke="#707173" points="1396.861,316.609 1248.507,402.265 1100.156,316.609 1100.156,145.3 
		1248.507,59.647 1396.861,145.3 	"/>
	<polygon fill="none" stroke="#707173" points="1693.579,316.609 1545.221,402.265 1396.867,316.609 1396.867,145.3 
		1545.221,59.647 1693.579,145.3 	"/>
</g>
</svg>
